<svg width="24" height="24" viewBox="0 0 24 24" fill="none" xmlns="http://www.w3.org/2000/svg">
<path d="M18.2197 4.71973C18.5126 4.42684 18.9873 4.42684 19.2802 4.71973C19.5731 5.01262 19.5731 5.48738 19.2802 5.78028L13.0605 12L19.2802 18.2197L19.332 18.2764C19.5723 18.571 19.5548 19.0057 19.2802 19.2803C19.0056 19.5549 18.5709 19.5723 18.2763 19.332L18.2197 19.2803L11.9999 13.0606L5.78022 19.2803C5.48732 19.5732 5.01256 19.5732 4.71967 19.2803C4.42678 18.9874 4.42678 18.5126 4.71967 18.2197L10.9394 12L4.71967 5.78028C4.42678 5.48738 4.42678 5.01262 4.71967 4.71973C5.01256 4.42684 5.48732 4.42684 5.78022 4.71973L11.9999 10.9395L18.2197 4.71973Z" fill="white"/>
</svg>
