<svg width="80" height="80" viewBox="0 0 80 80" fill="none" xmlns="http://www.w3.org/2000/svg">
<rect width="80" height="80" rx="8" fill="#F3EDFF" fill-opacity="0.16"/>
<path d="M27.4375 41.0393L28.4051 41.0348L28.4051 40.6294L28.1461 40.3338L27.4375 41.0393ZM17.3169 28.4119C16.7829 28.3937 16.3342 28.8404 16.3147 29.4097L15.9977 38.6875C15.9783 39.2568 16.3954 39.7331 16.9294 39.7514C17.4635 39.7696 17.9122 39.3229 17.9316 38.7536L18.2134 30.5067L25.949 30.771C26.483 30.7893 26.9317 30.3425 26.9512 29.7732C26.9706 29.2039 26.5535 28.7275 26.0195 28.7093L17.3169 28.4119ZM27.4375 41.0393L28.1461 40.3338L17.9903 28.7372L17.2817 29.4428L16.573 30.1483L26.7289 41.7449L27.4375 41.0393ZM27.4375 41.0393L26.4699 41.0438L26.4699 66.0045L27.4375 66L28.4051 65.9955L28.4051 41.0348L27.4375 41.0393Z" fill="white"/>
<path d="M52.5625 41.0393L51.5949 41.0348L51.5949 40.6294L51.8539 40.3338L52.5625 41.0393ZM62.6831 28.4119C63.2171 28.3937 63.6658 28.8404 63.6853 29.4097L64.0023 38.6875C64.0217 39.2568 63.6046 39.7331 63.0706 39.7514C62.5365 39.7696 62.0878 39.3229 62.0684 38.7536L61.7866 30.5067L54.051 30.771C53.517 30.7893 53.0683 30.3425 53.0488 29.7732C53.0294 29.2039 53.4465 28.7275 53.9805 28.7093L62.6831 28.4119ZM52.5625 41.0393L51.8539 40.3338L62.0097 28.7372L62.7183 29.4428L63.427 30.1483L53.2711 41.7449L52.5625 41.0393ZM52.5625 41.0393L53.5301 41.0438L53.5301 66.0045L52.5625 66L51.5949 65.9955L51.5949 41.0348L52.5625 41.0393Z" fill="white"/>
<path d="M40.7071 15.2929C40.3166 14.9024 39.6834 14.9024 39.2929 15.2929L32.9289 21.6569C32.5384 22.0474 32.5384 22.6805 32.9289 23.0711C33.3195 23.4616 33.9526 23.4616 34.3432 23.0711L40 17.4142L45.6569 23.0711C46.0474 23.4616 46.6806 23.4616 47.0711 23.0711C47.4616 22.6805 47.4616 22.0474 47.0711 21.6569L40.7071 15.2929ZM40 66L41 66L41 16L40 16L39 16L39 66L40 66Z" fill="white"/>
</svg>
