<svg width="80" height="80" viewBox="0 0 80 80" fill="none" xmlns="http://www.w3.org/2000/svg">
<rect width="80" height="80" rx="8" fill="#F3EDFF" fill-opacity="0.16"/>
<g clip-path="url(#clip0_5147_4271)">
<path d="M40 27.75C43.2489 27.75 46.3648 29.0406 48.6621 31.3379C50.9594 33.6352 52.25 36.7511 52.25 40C52.25 42.4228 51.5316 44.7912 50.1855 46.8057C48.8395 48.8202 46.9259 50.3902 44.6875 51.3174C42.4492 52.2444 39.9865 52.4872 37.6104 52.0146C35.2341 51.542 33.0511 50.3753 31.3379 48.6621C29.6247 46.9489 28.458 44.7659 27.9854 42.3896C27.5128 40.0135 27.7556 37.5508 28.6826 35.3125C29.6098 33.0741 31.1798 31.1605 33.1943 29.8145C35.2088 28.4684 37.5772 27.75 40 27.75ZM43.7314 30.9922C41.9499 30.2542 39.989 30.0613 38.0977 30.4375C36.2064 30.8137 34.469 31.742 33.1055 33.1055C31.742 34.469 30.8137 36.2064 30.4375 38.0977C30.0613 39.989 30.2542 41.9499 30.9922 43.7314C31.7301 45.5128 32.9798 47.0352 34.583 48.1064C36.1864 49.1778 38.0716 49.75 40 49.75C42.5859 49.75 45.0661 48.723 46.8945 46.8945C48.723 45.0661 49.75 42.5859 49.75 40C49.75 38.0716 49.1778 36.1864 48.1064 34.583C47.0352 32.9798 45.5128 31.7301 43.7314 30.9922Z" fill="white" stroke="#3F3B47" stroke-width="0.5"/>
<mask id="path-3-inside-1_5147_4271" fill="white">
<path d="M68.5 32H64.035C63.931 31.9992 63.8299 31.9661 63.7457 31.9051C63.6614 31.8442 63.5983 31.7585 63.565 31.66C63.2744 30.8347 62.9406 30.0252 62.565 29.235C62.5181 29.1418 62.5016 29.0362 62.5177 28.9331C62.5339 28.8299 62.5819 28.7345 62.655 28.66L65.81 25.5C66.135 25.175 66.3929 24.7891 66.5688 24.3645C66.7447 23.9398 66.8353 23.4847 66.8353 23.025C66.8353 22.5653 66.7447 22.1102 66.5688 21.6855C66.3929 21.2609 66.135 20.875 65.81 20.55L59.445 14.19C59.12 13.865 58.7341 13.6071 58.3095 13.4312C57.8848 13.2553 57.4297 13.1647 56.97 13.1647C56.5103 13.1647 56.0552 13.2553 55.6305 13.4312C55.2059 13.6071 54.82 13.865 54.495 14.19L51.34 17.345C51.2655 17.4181 51.1701 17.4661 51.0669 17.4823C50.9638 17.4984 50.8582 17.4819 50.765 17.435C49.9748 17.0593 49.1654 16.7255 48.34 16.435C48.2415 16.4017 48.1558 16.3386 48.0949 16.2543C48.0339 16.1701 48.0008 16.069 48 15.965V11.5C48 10.5717 47.6312 9.6815 46.9749 9.02513C46.3185 8.36875 45.4283 8 44.5 8H35.5C34.5717 8 33.6815 8.36875 33.0251 9.02513C32.3687 9.6815 32 10.5717 32 11.5V15.965C31.9992 16.069 31.9661 16.1701 31.9051 16.2543C31.8442 16.3386 31.7585 16.4017 31.66 16.435C30.8347 16.7256 30.0252 17.0594 29.235 17.435C29.1418 17.4819 29.0362 17.4984 28.9331 17.4823C28.8299 17.4661 28.7345 17.4181 28.66 17.345L25.5 14.19C25.175 13.865 24.7891 13.6071 24.3645 13.4312C23.9398 13.2553 23.4847 13.1647 23.025 13.1647C22.5653 13.1647 22.1102 13.2553 21.6855 13.4312C21.2609 13.6071 20.875 13.865 20.55 14.19L14.19 20.555C13.865 20.88 13.6071 21.2659 13.4312 21.6905C13.2553 22.1152 13.1647 22.5703 13.1647 23.03C13.1647 23.4897 13.2553 23.9448 13.4312 24.3695C13.6071 24.7941 13.865 25.18 14.19 25.505L17.345 28.66C17.4181 28.7345 17.4661 28.8299 17.4823 28.9331C17.4984 29.0362 17.4819 29.1418 17.435 29.235C17.0593 30.0252 16.7255 30.8346 16.435 31.66C16.4017 31.7585 16.3386 31.8442 16.2543 31.9051C16.1701 31.9661 16.069 31.9992 15.965 32H11.5C10.5717 32 9.6815 32.3687 9.02513 33.0251C8.36875 33.6815 8 34.5717 8 35.5V44.5C8 45.4283 8.36875 46.3185 9.02513 46.9749C9.6815 47.6312 10.5717 48 11.5 48H15.965C16.069 48.0008 16.1701 48.0339 16.2543 48.0949C16.3386 48.1558 16.4017 48.2415 16.435 48.34C16.7256 49.1653 17.0594 49.9748 17.435 50.765C17.4819 50.8582 17.4984 50.9638 17.4823 51.0669C17.4661 51.1701 17.4181 51.2655 17.345 51.34L14.19 54.5C13.865 54.825 13.6071 55.2109 13.4312 55.6355C13.2553 56.0602 13.1647 56.5153 13.1647 56.975C13.1647 57.4347 13.2553 57.8898 13.4312 58.3145C13.6071 58.7391 13.865 59.125 14.19 59.45L20.555 65.815C20.88 66.14 21.2659 66.3979 21.6905 66.5738C22.1152 66.7497 22.5703 66.8403 23.03 66.8403C23.4897 66.8403 23.9448 66.7497 24.3695 66.5738C24.7941 66.3979 25.18 66.14 25.505 65.815L28.66 62.66C28.7345 62.5869 28.8299 62.5389 28.9331 62.5227C29.0362 62.5066 29.1418 62.5231 29.235 62.57C30.0252 62.9457 30.8346 63.2795 31.66 63.57C31.7585 63.6033 31.8442 63.6664 31.9051 63.7507C31.9661 63.8349 31.9992 63.936 32 64.04V68.5C32 69.4283 32.3687 70.3185 33.0251 70.9749C33.6815 71.6312 34.5717 72 35.5 72H44.5C45.4283 72 46.3185 71.6312 46.9749 70.9749C47.6312 70.3185 48 69.4283 48 68.5V64.035C48.0008 63.931 48.0339 63.8299 48.0949 63.7457C48.1558 63.6614 48.2415 63.5983 48.34 63.565C49.1653 63.2744 49.9748 62.9406 50.765 62.565C50.8582 62.5181 50.9638 62.5016 51.0669 62.5177C51.1701 62.5339 51.2655 62.5819 51.34 62.655L54.5 65.81C54.825 66.135 55.2109 66.3929 55.6355 66.5688C56.0602 66.7447 56.5153 66.8353 56.975 66.8353C57.4347 66.8353 57.8898 66.7447 58.3145 66.5688C58.7391 66.3929 59.125 66.135 59.45 65.81L65.815 59.445C66.14 59.12 66.3979 58.7341 66.5738 58.3095C66.7497 57.8848 66.8403 57.4297 66.8403 56.97C66.8403 56.5103 66.7497 56.0552 66.5738 55.6305C66.3979 55.2059 66.14 54.82 65.815 54.495L62.66 51.34C62.5869 51.2655 62.5389 51.1701 62.5227 51.0669C62.5066 50.9638 62.5231 50.8582 62.57 50.765C62.9457 49.9748 63.2795 49.1654 63.57 48.34C63.6033 48.2415 63.6664 48.1558 63.7507 48.0949C63.8349 48.0339 63.936 48.0008 64.04 48H68.5C69.4283 48 70.3185 47.6312 70.9749 46.9749C71.6312 46.3185 72 45.4283 72 44.5V35.5C72 34.5717 71.6312 33.6815 70.9749 33.0251C70.3185 32.3687 69.4283 32 68.5 32ZM69 44.5C69 44.6326 68.9473 44.7598 68.8536 44.8536C68.7598 44.9473 68.6326 45 68.5 45H64.035C63.3098 45.0008 62.6027 45.2269 62.0116 45.647C61.4204 46.0671 60.9743 46.6604 60.735 47.345C60.4792 48.0699 60.1854 48.7809 59.855 49.475C59.5382 50.1293 59.433 50.866 59.5539 51.5828C59.6749 52.2996 60.016 52.9609 60.53 53.475L63.685 56.63C63.7781 56.7237 63.8304 56.8504 63.8304 56.9825C63.8304 57.1146 63.7781 57.2413 63.685 57.335L57.325 63.69C57.2313 63.7831 57.1046 63.8354 56.9725 63.8354C56.8404 63.8354 56.7137 63.7831 56.62 63.69L53.465 60.535C52.9509 60.021 52.2896 59.6799 51.5728 59.5589C50.856 59.438 50.1193 59.5432 49.465 59.86C48.7693 60.1906 48.0566 60.4843 47.33 60.74C46.6463 60.9802 46.0541 61.4266 45.6349 62.0177C45.2158 62.6088 44.9905 63.3154 44.99 64.04V68.5C44.99 68.6326 44.9373 68.7598 44.8436 68.8536C44.7498 68.9473 44.6226 69 44.49 69H35.5C35.3674 69 35.2402 68.9473 35.1464 68.8536C35.0527 68.7598 35 68.6326 35 68.5V64.035C34.9992 63.3098 34.7731 62.6027 34.353 62.0116C33.9329 61.4204 33.3396 60.9743 32.655 60.735C31.9301 60.4792 31.2191 60.1854 30.525 59.855C29.8707 59.5382 29.134 59.433 28.4172 59.5539C27.7004 59.6749 27.0391 60.016 26.525 60.53L23.37 63.685C23.2763 63.7781 23.1496 63.8304 23.0175 63.8304C22.8854 63.8304 22.7587 63.7781 22.665 63.685L16.31 57.325C16.2169 57.2313 16.1646 57.1046 16.1646 56.9725C16.1646 56.8404 16.2169 56.7137 16.31 56.62L19.465 53.465C19.979 52.9509 20.3201 52.2896 20.4411 51.5728C20.562 50.856 20.4568 50.1193 20.14 49.465C19.8094 48.7693 19.5157 48.0566 19.26 47.33C19.0185 46.649 18.5721 46.0595 17.9821 45.6423C17.3922 45.2251 16.6876 45.0008 15.965 45H11.5C11.3674 45 11.2402 44.9473 11.1464 44.8536C11.0527 44.7598 11 44.6326 11 44.5V35.5C11 35.3674 11.0527 35.2402 11.1464 35.1464C11.2402 35.0527 11.3674 35 11.5 35H15.965C16.6902 34.9992 17.3973 34.7731 17.9884 34.353C18.5796 33.9329 19.0257 33.3396 19.265 32.655C19.5208 31.9301 19.8146 31.2191 20.145 30.525C20.4618 29.8707 20.567 29.134 20.4461 28.4172C20.3251 27.7004 19.984 27.0391 19.47 26.525L16.315 23.37C16.2219 23.2763 16.1696 23.1496 16.1696 23.0175C16.1696 22.8854 16.2219 22.7587 16.315 22.665L22.675 16.31C22.7687 16.2169 22.8954 16.1646 23.0275 16.1646C23.1596 16.1646 23.2863 16.2169 23.38 16.31L26.535 19.465C27.0491 19.979 27.7104 20.3201 28.4272 20.4411C29.144 20.562 29.8807 20.4568 30.535 20.14C31.2307 19.8094 31.9434 19.5157 32.67 19.26C33.351 19.0185 33.9405 18.5721 34.3577 17.9821C34.7749 17.3922 34.9992 16.6876 35 15.965V11.5C35 11.3674 35.0527 11.2402 35.1464 11.1464C35.2402 11.0527 35.3674 11 35.5 11H44.5C44.6326 11 44.7598 11.0527 44.8536 11.1464C44.9473 11.2402 45 11.3674 45 11.5V15.965C45.0008 16.6902 45.2269 17.3973 45.647 17.9884C46.0671 18.5796 46.6604 19.0257 47.345 19.265C48.0699 19.5208 48.7809 19.8146 49.475 20.145C50.1293 20.4618 50.866 20.567 51.5828 20.4461C52.2996 20.3251 52.9609 19.984 53.475 19.47L56.63 16.315C56.7237 16.2219 56.8504 16.1696 56.9825 16.1696C57.1146 16.1696 57.2413 16.2219 57.335 16.315L63.7 22.68C63.7931 22.7737 63.8454 22.9004 63.8454 23.0325C63.8454 23.1646 63.7931 23.2913 63.7 23.385L60.545 26.54C60.031 27.0541 59.6899 27.7154 59.5689 28.4322C59.448 29.149 59.5532 29.8857 59.87 30.54C60.2006 31.2357 60.4943 31.9484 60.75 32.675C60.9902 33.3587 61.4366 33.9509 62.0277 34.3701C62.6188 34.7892 63.3254 35.0145 64.05 35.015H68.5C68.6326 35.015 68.7598 35.0677 68.8536 35.1614C68.9473 35.2552 69 35.3824 69 35.515V44.5Z"/>
</mask>
<path d="M68.5 32H64.035C63.931 31.9992 63.8299 31.9661 63.7457 31.9051C63.6614 31.8442 63.5983 31.7585 63.565 31.66C63.2744 30.8347 62.9406 30.0252 62.565 29.235C62.5181 29.1418 62.5016 29.0362 62.5177 28.9331C62.5339 28.8299 62.5819 28.7345 62.655 28.66L65.81 25.5C66.135 25.175 66.3929 24.7891 66.5688 24.3645C66.7447 23.9398 66.8353 23.4847 66.8353 23.025C66.8353 22.5653 66.7447 22.1102 66.5688 21.6855C66.3929 21.2609 66.135 20.875 65.81 20.55L59.445 14.19C59.12 13.865 58.7341 13.6071 58.3095 13.4312C57.8848 13.2553 57.4297 13.1647 56.97 13.1647C56.5103 13.1647 56.0552 13.2553 55.6305 13.4312C55.2059 13.6071 54.82 13.865 54.495 14.19L51.34 17.345C51.2655 17.4181 51.1701 17.4661 51.0669 17.4823C50.9638 17.4984 50.8582 17.4819 50.765 17.435C49.9748 17.0593 49.1654 16.7255 48.34 16.435C48.2415 16.4017 48.1558 16.3386 48.0949 16.2543C48.0339 16.1701 48.0008 16.069 48 15.965V11.5C48 10.5717 47.6312 9.6815 46.9749 9.02513C46.3185 8.36875 45.4283 8 44.5 8H35.5C34.5717 8 33.6815 8.36875 33.0251 9.02513C32.3687 9.6815 32 10.5717 32 11.5V15.965C31.9992 16.069 31.9661 16.1701 31.9051 16.2543C31.8442 16.3386 31.7585 16.4017 31.66 16.435C30.8347 16.7256 30.0252 17.0594 29.235 17.435C29.1418 17.4819 29.0362 17.4984 28.9331 17.4823C28.8299 17.4661 28.7345 17.4181 28.66 17.345L25.5 14.19C25.175 13.865 24.7891 13.6071 24.3645 13.4312C23.9398 13.2553 23.4847 13.1647 23.025 13.1647C22.5653 13.1647 22.1102 13.2553 21.6855 13.4312C21.2609 13.6071 20.875 13.865 20.55 14.19L14.19 20.555C13.865 20.88 13.6071 21.2659 13.4312 21.6905C13.2553 22.1152 13.1647 22.5703 13.1647 23.03C13.1647 23.4897 13.2553 23.9448 13.4312 24.3695C13.6071 24.7941 13.865 25.18 14.19 25.505L17.345 28.66C17.4181 28.7345 17.4661 28.8299 17.4823 28.9331C17.4984 29.0362 17.4819 29.1418 17.435 29.235C17.0593 30.0252 16.7255 30.8346 16.435 31.66C16.4017 31.7585 16.3386 31.8442 16.2543 31.9051C16.1701 31.9661 16.069 31.9992 15.965 32H11.5C10.5717 32 9.6815 32.3687 9.02513 33.0251C8.36875 33.6815 8 34.5717 8 35.5V44.5C8 45.4283 8.36875 46.3185 9.02513 46.9749C9.6815 47.6312 10.5717 48 11.5 48H15.965C16.069 48.0008 16.1701 48.0339 16.2543 48.0949C16.3386 48.1558 16.4017 48.2415 16.435 48.34C16.7256 49.1653 17.0594 49.9748 17.435 50.765C17.4819 50.8582 17.4984 50.9638 17.4823 51.0669C17.4661 51.1701 17.4181 51.2655 17.345 51.34L14.19 54.5C13.865 54.825 13.6071 55.2109 13.4312 55.6355C13.2553 56.0602 13.1647 56.5153 13.1647 56.975C13.1647 57.4347 13.2553 57.8898 13.4312 58.3145C13.6071 58.7391 13.865 59.125 14.19 59.45L20.555 65.815C20.88 66.14 21.2659 66.3979 21.6905 66.5738C22.1152 66.7497 22.5703 66.8403 23.03 66.8403C23.4897 66.8403 23.9448 66.7497 24.3695 66.5738C24.7941 66.3979 25.18 66.14 25.505 65.815L28.66 62.66C28.7345 62.5869 28.8299 62.5389 28.9331 62.5227C29.0362 62.5066 29.1418 62.5231 29.235 62.57C30.0252 62.9457 30.8346 63.2795 31.66 63.57C31.7585 63.6033 31.8442 63.6664 31.9051 63.7507C31.9661 63.8349 31.9992 63.936 32 64.04V68.5C32 69.4283 32.3687 70.3185 33.0251 70.9749C33.6815 71.6312 34.5717 72 35.5 72H44.5C45.4283 72 46.3185 71.6312 46.9749 70.9749C47.6312 70.3185 48 69.4283 48 68.5V64.035C48.0008 63.931 48.0339 63.8299 48.0949 63.7457C48.1558 63.6614 48.2415 63.5983 48.34 63.565C49.1653 63.2744 49.9748 62.9406 50.765 62.565C50.8582 62.5181 50.9638 62.5016 51.0669 62.5177C51.1701 62.5339 51.2655 62.5819 51.34 62.655L54.5 65.81C54.825 66.135 55.2109 66.3929 55.6355 66.5688C56.0602 66.7447 56.5153 66.8353 56.975 66.8353C57.4347 66.8353 57.8898 66.7447 58.3145 66.5688C58.7391 66.3929 59.125 66.135 59.45 65.81L65.815 59.445C66.14 59.12 66.3979 58.7341 66.5738 58.3095C66.7497 57.8848 66.8403 57.4297 66.8403 56.97C66.8403 56.5103 66.7497 56.0552 66.5738 55.6305C66.3979 55.2059 66.14 54.82 65.815 54.495L62.66 51.34C62.5869 51.2655 62.5389 51.1701 62.5227 51.0669C62.5066 50.9638 62.5231 50.8582 62.57 50.765C62.9457 49.9748 63.2795 49.1654 63.57 48.34C63.6033 48.2415 63.6664 48.1558 63.7507 48.0949C63.8349 48.0339 63.936 48.0008 64.04 48H68.5C69.4283 48 70.3185 47.6312 70.9749 46.9749C71.6312 46.3185 72 45.4283 72 44.5V35.5C72 34.5717 71.6312 33.6815 70.9749 33.0251C70.3185 32.3687 69.4283 32 68.5 32ZM69 44.5C69 44.6326 68.9473 44.7598 68.8536 44.8536C68.7598 44.9473 68.6326 45 68.5 45H64.035C63.3098 45.0008 62.6027 45.2269 62.0116 45.647C61.4204 46.0671 60.9743 46.6604 60.735 47.345C60.4792 48.0699 60.1854 48.7809 59.855 49.475C59.5382 50.1293 59.433 50.866 59.5539 51.5828C59.6749 52.2996 60.016 52.9609 60.53 53.475L63.685 56.63C63.7781 56.7237 63.8304 56.8504 63.8304 56.9825C63.8304 57.1146 63.7781 57.2413 63.685 57.335L57.325 63.69C57.2313 63.7831 57.1046 63.8354 56.9725 63.8354C56.8404 63.8354 56.7137 63.7831 56.62 63.69L53.465 60.535C52.9509 60.021 52.2896 59.6799 51.5728 59.5589C50.856 59.438 50.1193 59.5432 49.465 59.86C48.7693 60.1906 48.0566 60.4843 47.33 60.74C46.6463 60.9802 46.0541 61.4266 45.6349 62.0177C45.2158 62.6088 44.9905 63.3154 44.99 64.04V68.5C44.99 68.6326 44.9373 68.7598 44.8436 68.8536C44.7498 68.9473 44.6226 69 44.49 69H35.5C35.3674 69 35.2402 68.9473 35.1464 68.8536C35.0527 68.7598 35 68.6326 35 68.5V64.035C34.9992 63.3098 34.7731 62.6027 34.353 62.0116C33.9329 61.4204 33.3396 60.9743 32.655 60.735C31.9301 60.4792 31.2191 60.1854 30.525 59.855C29.8707 59.5382 29.134 59.433 28.4172 59.5539C27.7004 59.6749 27.0391 60.016 26.525 60.53L23.37 63.685C23.2763 63.7781 23.1496 63.8304 23.0175 63.8304C22.8854 63.8304 22.7587 63.7781 22.665 63.685L16.31 57.325C16.2169 57.2313 16.1646 57.1046 16.1646 56.9725C16.1646 56.8404 16.2169 56.7137 16.31 56.62L19.465 53.465C19.979 52.9509 20.3201 52.2896 20.4411 51.5728C20.562 50.856 20.4568 50.1193 20.14 49.465C19.8094 48.7693 19.5157 48.0566 19.26 47.33C19.0185 46.649 18.5721 46.0595 17.9821 45.6423C17.3922 45.2251 16.6876 45.0008 15.965 45H11.5C11.3674 45 11.2402 44.9473 11.1464 44.8536C11.0527 44.7598 11 44.6326 11 44.5V35.5C11 35.3674 11.0527 35.2402 11.1464 35.1464C11.2402 35.0527 11.3674 35 11.5 35H15.965C16.6902 34.9992 17.3973 34.7731 17.9884 34.353C18.5796 33.9329 19.0257 33.3396 19.265 32.655C19.5208 31.9301 19.8146 31.2191 20.145 30.525C20.4618 29.8707 20.567 29.134 20.4461 28.4172C20.3251 27.7004 19.984 27.0391 19.47 26.525L16.315 23.37C16.2219 23.2763 16.1696 23.1496 16.1696 23.0175C16.1696 22.8854 16.2219 22.7587 16.315 22.665L22.675 16.31C22.7687 16.2169 22.8954 16.1646 23.0275 16.1646C23.1596 16.1646 23.2863 16.2169 23.38 16.31L26.535 19.465C27.0491 19.979 27.7104 20.3201 28.4272 20.4411C29.144 20.562 29.8807 20.4568 30.535 20.14C31.2307 19.8094 31.9434 19.5157 32.67 19.26C33.351 19.0185 33.9405 18.5721 34.3577 17.9821C34.7749 17.3922 34.9992 16.6876 35 15.965V11.5C35 11.3674 35.0527 11.2402 35.1464 11.1464C35.2402 11.0527 35.3674 11 35.5 11H44.5C44.6326 11 44.7598 11.0527 44.8536 11.1464C44.9473 11.2402 45 11.3674 45 11.5V15.965C45.0008 16.6902 45.2269 17.3973 45.647 17.9884C46.0671 18.5796 46.6604 19.0257 47.345 19.265C48.0699 19.5208 48.7809 19.8146 49.475 20.145C50.1293 20.4618 50.866 20.567 51.5828 20.4461C52.2996 20.3251 52.9609 19.984 53.475 19.47L56.63 16.315C56.7237 16.2219 56.8504 16.1696 56.9825 16.1696C57.1146 16.1696 57.2413 16.2219 57.335 16.315L63.7 22.68C63.7931 22.7737 63.8454 22.9004 63.8454 23.0325C63.8454 23.1646 63.7931 23.2913 63.7 23.385L60.545 26.54C60.031 27.0541 59.6899 27.7154 59.5689 28.4322C59.448 29.149 59.5532 29.8857 59.87 30.54C60.2006 31.2357 60.4943 31.9484 60.75 32.675C60.9902 33.3587 61.4366 33.9509 62.0277 34.3701C62.6188 34.7892 63.3254 35.0145 64.05 35.015H68.5C68.6326 35.015 68.7598 35.0677 68.8536 35.1614C68.9473 35.2552 69 35.3824 69 35.515V44.5Z" fill="white" stroke="#3E3A46" mask="url(#path-3-inside-1_5147_4271)"/>
</g>
<defs>
<clipPath id="clip0_5147_4271">
<rect width="64" height="64" fill="white" transform="translate(8 8)"/>
</clipPath>
</defs>
</svg>
