<svg width="80" height="80" viewBox="0 0 80 80" fill="none" xmlns="http://www.w3.org/2000/svg">
<rect width="80" height="80" rx="8" fill="#F3EDFF" fill-opacity="0.16"/>
<g clip-path="url(#clip0_5147_4642)">
<g clip-path="url(#clip1_5147_4642)">
<path d="M29.0836 41.6667C29.0836 40.9303 28.4742 40.3334 27.7224 40.3334C26.9707 40.3334 26.3613 40.9303 26.3613 41.6667C26.3613 42.4031 26.9707 43 27.7224 43C28.4742 43 29.0836 42.4031 29.0836 41.6667Z" stroke="white" stroke-width="1.5"/>
<path d="M45.4175 41.6667C45.4175 40.9303 44.8081 40.3334 44.0564 40.3334C43.3047 40.3334 42.6953 40.9303 42.6953 41.6667C42.6953 42.4031 43.3047 43 44.0564 43C44.8081 43 45.4175 42.4031 45.4175 41.6667Z" stroke="white" stroke-width="1.5"/>
<path d="M37.2496 41.6667C37.2496 40.9303 36.6402 40.3334 35.8885 40.3334C35.1367 40.3334 34.5273 40.9303 34.5273 41.6667C34.5273 42.4031 35.1367 43 35.8885 43C36.6402 43 37.2496 42.4031 37.2496 41.6667Z" stroke="white" stroke-width="1.5"/>
<path d="M29.0836 52.3333C29.0836 51.597 28.4742 51 27.7224 51C26.9707 51 26.3613 51.597 26.3613 52.3333C26.3613 53.0697 26.9707 53.6667 27.7224 53.6667C28.4742 53.6667 29.0836 53.0697 29.0836 52.3333Z" stroke="white" stroke-width="1.5"/>
<path d="M45.4175 52.3333C45.4175 51.597 44.8081 51 44.0564 51C43.3047 51 42.6953 51.597 42.6953 52.3333C42.6953 53.0697 43.3047 53.6667 44.0564 53.6667C44.8081 53.6667 45.4175 53.0697 45.4175 52.3333Z" stroke="white" stroke-width="1.5"/>
<path d="M36.9773 52.2C36.9773 51.5373 36.4289 51 35.7523 51C35.0758 51 34.5273 51.5373 34.5273 52.2V52.4667C34.5273 53.1294 35.0758 53.6667 35.7523 53.6667C36.4289 53.6667 36.9773 53.1294 36.9773 52.4667V52.2Z" stroke="white" stroke-width="1.5"/>
<path d="M60.3898 16.3334H22.2786C20.0235 16.3334 18.1953 18.1242 18.1953 20.3334V57.6667C18.1953 59.8758 20.0235 61.6667 22.2786 61.6667H60.3898C62.6449 61.6667 64.4731 59.8758 64.4731 57.6667V20.3334C64.4731 18.1242 62.6449 16.3334 60.3898 16.3334Z" stroke="white" stroke-width="1.5"/>
<path d="M54.9423 24.3334H27.7201C25.4649 24.3334 23.6367 26.1242 23.6367 28.3334C23.6367 30.5425 25.4649 32.3334 27.7201 32.3334H54.9423C57.1974 32.3334 59.0256 30.5425 59.0256 28.3334C59.0256 26.1242 57.1974 24.3334 54.9423 24.3334Z" stroke="white" stroke-width="1.5"/>
<path d="M56.3058 43C56.3058 41.5273 55.087 40.3334 53.5836 40.3334C52.0801 40.3334 50.8613 41.5273 50.8613 43V51C50.8613 52.4728 52.0801 53.6667 53.5836 53.6667C55.087 53.6667 56.3058 52.4728 56.3058 51V43Z" stroke="white" stroke-width="1.5"/>
</g>
</g>
<defs>
<clipPath id="clip0_5147_4642">
<rect width="64" height="64" fill="white" transform="translate(8 8)"/>
</clipPath>
<clipPath id="clip1_5147_4642">
<rect width="64" height="64" fill="white" transform="translate(8.66602 7)"/>
</clipPath>
</defs>
</svg>
