<svg width="80" height="80" viewBox="0 0 80 80" fill="none" xmlns="http://www.w3.org/2000/svg">
<rect width="80" height="80" rx="8" fill="#F3EDFF" fill-opacity="0.16"/>
<path d="M60.653 15.5918H19.3469C17.273 15.5918 15.5918 17.273 15.5918 19.3469V60.653C15.5918 62.727 17.273 64.4081 19.3469 64.4081H60.653C62.727 64.4081 64.4081 62.727 64.4081 60.653V19.3469C64.4081 17.273 62.727 15.5918 60.653 15.5918Z" stroke="white" stroke-width="1.5" stroke-linecap="round" stroke-linejoin="round"/>
<path d="M40.0001 15.5918V23.5975C39.0035 22.7056 37.6876 22.1632 36.245 22.1632C33.1341 22.1632 30.6123 24.685 30.6123 27.7959C30.6123 30.9067 33.1341 33.4285 36.245 33.4285C37.6876 33.4285 39.0035 32.8862 40.0001 31.9943V48.0057C40.9966 47.1137 42.3125 46.5714 43.7552 46.5714C46.866 46.5714 49.3878 49.0932 49.3878 52.204C49.3878 55.3148 46.866 57.8367 43.7552 57.8367C42.3125 57.8367 40.9966 57.2945 40.0001 56.4026V64.4081" stroke="white" stroke-width="1.5" stroke-linecap="round" stroke-linejoin="round"/>
<path d="M15.5918 39.9999H23.5975C22.7056 40.9965 22.1632 42.3124 22.1632 43.755C22.1632 46.8659 24.685 49.3877 27.7959 49.3877C30.9067 49.3877 33.4285 46.8659 33.4285 43.755C33.4285 42.3124 32.8862 40.9965 31.9943 39.9999H48.0057C47.1137 39.0034 46.5714 37.6875 46.5714 36.2448C46.5714 33.134 49.0932 30.6122 52.204 30.6122C55.3148 30.6122 57.8367 33.134 57.8367 36.2448C57.8367 37.6875 57.2945 39.0034 56.4026 39.9999H64.4081" stroke="white" stroke-width="1.5" stroke-linecap="round" stroke-linejoin="round"/>
</svg>
