<svg width="80" height="80" viewBox="0 0 80 80" fill="none" xmlns="http://www.w3.org/2000/svg">
<rect width="80" height="80" rx="8" fill="#F3EDFF" fill-opacity="0.16"/>
<path d="M29.3335 38.4C29.3335 40.4533 30.9335 42.1333 32.8802 42.1333H36.8802C38.5868 42.1333 39.9735 40.6666 39.9735 38.88C39.9735 36.9333 39.1202 36.24 37.8668 35.7866L31.4668 33.5466C30.1868 33.0933 29.3335 32.4 29.3335 30.4533C29.3335 28.6666 30.7202 27.2 32.4268 27.2H36.4268C38.4002 27.2266 40.0002 28.88 40.0002 30.9333" stroke="white" stroke-width="1.5" stroke-linecap="round" stroke-linejoin="round"/>
<path d="M34.6665 42.2667V44.2401" stroke="white" stroke-width="1.5" stroke-linecap="round" stroke-linejoin="round"/>
<path d="M34.6665 25.0934V27.1734" stroke="white" stroke-width="1.5" stroke-linecap="round" stroke-linejoin="round"/>
<path d="M34.6402 55.9467C46.4075 55.9467 55.9468 46.4074 55.9468 34.64C55.9468 22.8727 46.4075 13.3334 34.6402 13.3334C22.8728 13.3334 13.3335 22.8727 13.3335 34.64C13.3335 46.4074 22.8728 55.9467 34.6402 55.9467Z" stroke="white" stroke-width="1.5" stroke-linecap="round" stroke-linejoin="round"/>
<path d="M42.6133 61.0133C45.0133 64.4 48.9333 66.6133 53.4133 66.6133C60.6933 66.6133 66.6133 60.6933 66.6133 53.4133C66.6133 48.9866 64.4266 45.0666 61.0933 42.6666" stroke="white" stroke-width="1.5" stroke-linecap="round" stroke-linejoin="round"/>
</svg>
