<svg width="37" height="22" viewBox="0 0 37 22" fill="none" xmlns="http://www.w3.org/2000/svg">
<g clip-path="url(#clip0_2508_7578)">
<path d="M10.4221 7.99014C10.4221 8.44282 10.4713 8.80985 10.5575 9.07901C10.6559 9.34817 10.779 9.6418 10.9512 9.9599C11.0127 10.0578 11.0374 10.1557 11.0374 10.2413C11.0374 10.3636 10.9635 10.486 10.8036 10.6083L10.0284 11.1222C9.91763 11.1956 9.80689 11.2323 9.70845 11.2323C9.58541 11.2323 9.46236 11.1711 9.33931 11.061C9.16705 10.8775 9.01939 10.6817 8.89635 10.486C8.7733 10.278 8.65025 10.0455 8.5149 9.76415C7.55514 10.8897 6.34929 11.4525 4.89735 11.4525C3.86376 11.4525 3.03935 11.1589 2.43642 10.5716C1.83349 9.98437 1.52588 9.20136 1.52588 8.2226C1.52588 7.18266 1.89502 6.33847 2.6456 5.70228C3.39618 5.06608 4.39286 4.74798 5.66023 4.74798C6.07859 4.74798 6.50925 4.78469 6.96452 4.84586C7.41979 4.90703 7.88737 5.00491 8.37955 5.11502V4.2219C8.37955 3.29207 8.18268 2.64364 7.80124 2.26437C7.40749 1.8851 6.74304 1.70158 5.79558 1.70158C5.36492 1.70158 4.92195 1.75052 4.46668 1.86063C4.01141 1.97074 3.56845 2.10532 3.13778 2.2766C2.94091 2.36225 2.79325 2.41118 2.70712 2.43565C2.62099 2.46012 2.55947 2.47236 2.51025 2.47236C2.33798 2.47236 2.25185 2.35001 2.25185 2.09309V1.49359C2.25185 1.29784 2.27646 1.15102 2.33798 1.06538C2.39951 0.979741 2.51025 0.894099 2.68251 0.808457C3.11318 0.588235 3.62997 0.404717 4.2329 0.257902C4.83582 0.098853 5.47566 0.0254457 6.15242 0.0254457C7.61667 0.0254457 8.68717 0.355779 9.37623 1.01644C10.053 1.67711 10.3975 2.68034 10.3975 4.02614V7.99014H10.4221ZM5.42644 9.84979C5.8325 9.84979 6.25085 9.77638 6.69382 9.62957C7.13679 9.48275 7.53053 9.21359 7.86276 8.84656C8.05963 8.6141 8.20729 8.35718 8.28112 8.06355C8.35494 7.76992 8.40416 7.41512 8.40416 6.99914V6.48529C8.04733 6.39965 7.66588 6.32624 7.27214 6.2773C6.87839 6.22836 6.49695 6.20389 6.1155 6.20389C5.29109 6.20389 4.68817 6.36294 4.28211 6.69328C3.87606 7.02361 3.67919 7.48852 3.67919 8.10025C3.67919 8.67527 3.82684 9.10348 4.13446 9.39711C4.42977 9.70298 4.86043 9.84979 5.42644 9.84979ZM15.3071 11.1711C15.0856 11.1711 14.9379 11.1344 14.8395 11.0488C14.741 10.9754 14.6549 10.8041 14.5811 10.5716L11.6895 1.11432C11.6157 0.86963 11.5788 0.710581 11.5788 0.624939C11.5788 0.429186 11.6772 0.319075 11.8741 0.319075H13.0799C13.3137 0.319075 13.4737 0.355779 13.5598 0.44142C13.6582 0.514828 13.7321 0.686112 13.8059 0.918568L15.8731 9.01784L17.7926 0.918568C17.8541 0.673877 17.9279 0.514828 18.0264 0.44142C18.1248 0.368013 18.2971 0.319075 18.5186 0.319075H19.5029C19.7367 0.319075 19.8967 0.355779 19.9951 0.44142C20.0936 0.514828 20.1797 0.686112 20.2289 0.918568L22.173 9.11572L24.3017 0.918568C24.3756 0.673877 24.4617 0.514828 24.5478 0.44142C24.6463 0.368013 24.8062 0.319075 25.0277 0.319075H26.172C26.3689 0.319075 26.4797 0.416951 26.4797 0.624939C26.4797 0.686111 26.4673 0.747284 26.455 0.820692C26.4427 0.894099 26.4181 0.991975 26.3689 1.12656L23.4035 10.5839C23.3297 10.8286 23.2435 10.9876 23.1451 11.061C23.0467 11.1344 22.8867 11.1834 22.6775 11.1834H21.6193C21.3855 11.1834 21.2256 11.1467 21.1271 11.061C21.0287 10.9754 20.9426 10.8163 20.8934 10.5716L18.9861 2.68034L17.0912 10.5594C17.0297 10.8041 16.9559 10.9631 16.8574 11.0488C16.759 11.1344 16.5867 11.1711 16.3653 11.1711H15.3071ZM31.1185 11.5015C30.4787 11.5015 29.8388 11.428 29.2236 11.2812C28.6084 11.1344 28.1285 10.9754 27.8086 10.7919C27.6117 10.6817 27.4763 10.5594 27.4271 10.4493C27.3779 10.3392 27.3533 10.2168 27.3533 10.1067V9.48275C27.3533 9.22583 27.4517 9.10348 27.6363 9.10348C27.7101 9.10348 27.7839 9.11572 27.8578 9.14019C27.9316 9.16466 28.0423 9.21359 28.1654 9.26253C28.5837 9.44605 29.039 9.59286 29.5189 9.69074C30.0111 9.78862 30.491 9.83756 30.9831 9.83756C31.7583 9.83756 32.3613 9.70298 32.7796 9.43382C33.198 9.16466 33.4195 8.77315 33.4195 8.27153C33.4195 7.92897 33.3087 7.64757 33.0872 7.41511C32.8658 7.18266 32.4474 6.97467 31.8445 6.77892L30.0603 6.22836C29.1621 5.94697 28.4976 5.53099 28.0916 4.98044C27.6855 4.44212 27.4763 3.84263 27.4763 3.20643C27.4763 2.69258 27.5871 2.2399 27.8086 1.84839C28.03 1.45689 28.3253 1.11432 28.6945 0.845161C29.0636 0.563766 29.482 0.355779 29.9742 0.208964C30.4664 0.0621493 30.9831 0.000976562 31.5245 0.000976562C31.7953 0.000976562 32.0783 0.0132111 32.349 0.0499148C32.632 0.0866184 32.8904 0.135557 33.1488 0.184495C33.3948 0.245668 33.6286 0.30684 33.8501 0.380248C34.0716 0.453655 34.2439 0.527062 34.3669 0.60047C34.5392 0.698346 34.6622 0.796222 34.7361 0.906333C34.8099 1.00421 34.8468 1.13879 34.8468 1.31007V1.8851C34.8468 2.14202 34.7484 2.2766 34.5638 2.2766C34.4654 2.2766 34.3054 2.22766 34.0962 2.12979C33.3949 1.81169 32.6074 1.65264 31.7337 1.65264C31.0324 1.65264 30.4787 1.76275 30.0972 1.99521C29.7158 2.22766 29.5189 2.58247 29.5189 3.08408C29.5189 3.42665 29.6419 3.72028 29.888 3.95274C30.1341 4.18519 30.5894 4.41765 31.2415 4.62564L32.9888 5.17619C33.8747 5.45759 34.5146 5.84909 34.896 6.35071C35.2775 6.85233 35.462 7.42735 35.462 8.06355C35.462 8.58963 35.3513 9.06678 35.1421 9.48275C34.9206 9.89873 34.6253 10.2658 34.2439 10.5594C33.8624 10.8653 33.4072 11.0855 32.8781 11.2445C32.3244 11.4158 31.746 11.5015 31.1185 11.5015Z" fill="white"/>
<path d="M33.444 17.4478C29.3958 20.4208 23.5142 21.9991 18.457 21.9991C11.3695 21.9991 4.98341 19.3931 0.159993 15.0621C-0.22145 14.7195 0.12308 14.2546 0.578351 14.5237C5.79551 17.5334 12.2308 19.3564 18.8876 19.3564C23.3788 19.3564 28.313 18.4266 32.8534 16.518C33.5301 16.2121 34.1084 16.9584 33.444 17.4478Z" fill="#FF9900"/>
<path d="M35.1297 15.5392C34.6129 14.8786 31.7091 15.2211 30.3925 15.3802C29.9987 15.4291 29.9372 15.0866 30.294 14.8296C32.6073 13.2147 36.4094 13.6796 36.8524 14.2179C37.2954 14.7685 36.7293 18.5489 34.5637 20.3596C34.2315 20.641 33.9116 20.4942 34.0592 20.1272C34.5514 18.916 35.6465 16.1877 35.1297 15.5392Z" fill="#FF9900"/>
</g>
<defs>
<clipPath id="clip0_2508_7578">
<rect width="37" height="22" fill="white"/>
</clipPath>
</defs>
</svg>
