<svg width="142" height="22" viewBox="0 0 142 22" fill="none" xmlns="http://www.w3.org/2000/svg">
<path d="M17.1422 5.82222H17.9267L20.1626 3.58294L20.2725 2.63222C18.9916 1.49997 17.4437 0.713438 15.7749 0.346918C14.1061 -0.0196019 12.3716 0.0459926 10.7351 0.537505C9.0987 1.02902 7.61439 1.93022 6.42242 3.15599C5.23046 4.38175 4.37018 5.89161 3.92285 7.54293C4.17194 7.44068 4.44787 7.4241 4.70738 7.49579L9.1792 6.75722C9.1792 6.75722 9.40672 6.38008 9.5244 6.40365C10.4826 5.34974 11.8067 4.7025 13.2258 4.59441C14.6449 4.48632 16.0516 4.92556 17.1579 5.82222H17.1422Z" fill="#EA4335"/>
<path d="M23.3476 7.54299C22.8337 5.64756 21.7785 3.94359 20.3115 2.64014L17.1734 5.78299C17.8274 6.31819 18.3515 6.99515 18.7062 7.76279C19.0609 8.53043 19.2369 9.36872 19.221 10.2144V10.7723C19.5878 10.7723 19.951 10.8446 20.2898 10.9852C20.6287 11.1258 20.9365 11.3318 21.1959 11.5915C21.4552 11.8513 21.661 12.1596 21.8013 12.499C21.9417 12.8384 22.0139 13.2021 22.0139 13.5694C22.0139 13.9367 21.9417 14.3005 21.8013 14.6398C21.661 14.9792 21.4552 15.2876 21.1959 15.5473C20.9365 15.807 20.6287 16.0131 20.2898 16.1536C19.951 16.2942 19.5878 16.3666 19.221 16.3666H13.6351L13.0781 16.9323V20.2873L13.6351 20.8451H19.221C20.7808 20.8573 22.3031 20.3663 23.5628 19.4448C24.8224 18.5233 25.7524 17.2202 26.2152 15.7284C26.678 14.2365 26.649 12.635 26.1326 11.1609C25.6162 9.68674 24.6397 8.41823 23.3476 7.54299Z" fill="#4285F4"/>
<path d="M8.04129 20.8135H13.6271V16.3349H8.04129C7.64332 16.3348 7.25002 16.2491 6.88803 16.0835L6.1035 16.3271L3.85189 18.5664L3.65576 19.3521C4.91841 20.307 6.45911 20.8204 8.04129 20.8135Z" fill="#34A853"/>
<path d="M8.04167 6.28569C6.52817 6.29475 5.05528 6.777 3.82874 7.66509C2.60219 8.55319 1.68322 9.80277 1.2002 11.2393C0.717175 12.6759 0.694213 14.2276 1.13452 15.6779C1.57482 17.1281 2.45641 18.4044 3.65614 19.3285L6.89625 16.0835C6.4845 15.8972 6.12403 15.6137 5.84577 15.2572C5.5675 14.9007 5.37976 14.4819 5.29863 14.0367C5.21751 13.5916 5.24543 13.1333 5.38001 12.7014C5.51458 12.2694 5.75179 11.8766 6.07128 11.5566C6.39076 11.2366 6.78299 10.9991 7.21431 10.8643C7.64563 10.7295 8.10315 10.7016 8.54764 10.7828C8.99212 10.864 9.41028 11.0521 9.76625 11.3308C10.1222 11.6094 10.4054 11.9705 10.5914 12.3828L13.8315 9.13783C13.1514 8.24743 12.2749 7.52665 11.2705 7.03186C10.2661 6.53708 9.161 6.28169 8.04167 6.28569Z" fill="#FBBC05"/>
<path d="M41.4156 17.6863C40.4538 17.6985 39.4995 17.5163 38.6098 17.1504C37.7201 16.7845 36.9133 16.2426 36.2377 15.557C35.5408 14.9005 34.9877 14.1061 34.6136 13.2242C34.2395 12.3424 34.0525 11.3922 34.0645 10.4341C34.053 9.47611 34.2402 8.52613 34.6143 7.64432C34.9884 6.7625 35.5412 5.96806 36.2377 5.31128C36.91 4.61859 37.7153 4.06936 38.6052 3.69667C39.495 3.32398 40.451 3.13554 41.4156 3.14271C42.3346 3.13044 43.2469 3.30125 44.0994 3.64521C44.952 3.98916 45.7277 4.49941 46.3816 5.14628L44.9852 6.56842C44.0288 5.64281 42.7453 5.13429 41.4156 5.15414C40.7257 5.14565 40.0417 5.28097 39.4069 5.5515C38.7721 5.82203 38.2005 6.22186 37.7283 6.72556C37.2375 7.21316 36.8504 7.79518 36.5902 8.43658C36.3299 9.07798 36.202 9.76549 36.2141 10.4577C36.2084 11.142 36.3394 11.8206 36.5994 12.4534C36.8594 13.0863 37.2432 13.6607 37.7283 14.1427C38.6998 15.1124 40.0108 15.664 41.3823 15.6801C42.7538 15.6962 44.0775 15.1756 45.0715 14.2291C45.6869 13.5542 46.0644 12.6959 46.1463 11.7856H41.4391V9.77413H48.0998C48.1652 10.1792 48.1915 10.5897 48.1782 10.9998C48.2196 11.8487 48.0887 12.6972 47.7934 13.494C47.4981 14.2908 47.0445 15.0193 46.4601 15.6356C45.8103 16.3131 45.0252 16.8459 44.156 17.1993C43.2868 17.5526 42.3531 17.7186 41.4156 17.6863ZM56.9022 16.3506C56.0083 17.2087 54.8179 17.6878 53.5797 17.6878C52.3415 17.6878 51.1511 17.2087 50.2572 16.3506C49.8123 15.9185 49.4619 15.3986 49.2283 14.8237C48.9946 14.2489 48.8828 13.6317 48.9 13.0113C48.8833 12.3909 48.9953 11.7739 49.2289 11.1991C49.4625 10.6243 49.8127 10.1043 50.2572 9.67199C51.152 8.81565 52.342 8.33776 53.5797 8.33776C54.8174 8.33776 56.0074 8.81565 56.9022 9.67199C57.3467 10.1043 57.6969 10.6243 57.9305 11.1991C58.1641 11.7739 58.2761 12.3909 58.2594 13.0113C58.2756 13.6323 58.1625 14.2498 57.9275 14.8247C57.6925 15.3996 57.3407 15.9192 56.8943 16.3506H56.9022ZM51.7243 15.0384C51.962 15.2927 52.2494 15.4954 52.5685 15.634C52.8877 15.7726 53.2318 15.8441 53.5797 15.8441C53.9276 15.8441 54.2717 15.7726 54.5909 15.634C54.91 15.4954 55.1974 15.2927 55.4351 15.0384C55.6944 14.7701 55.8973 14.4525 56.0321 14.1043C56.1668 13.7562 56.2306 13.3845 56.2196 13.0113C56.2312 12.6368 56.1677 12.2638 56.033 11.9143C55.8983 11.5648 55.695 11.2458 55.4351 10.9763C55.1942 10.7246 54.9049 10.5243 54.5847 10.3875C54.2645 10.2507 53.92 10.1801 53.5719 10.1801C53.2237 10.1801 52.8792 10.2507 52.559 10.3875C52.2388 10.5243 51.9495 10.7246 51.7086 10.9763C51.4488 11.2458 51.2455 11.5648 51.1107 11.9143C50.976 12.2638 50.9125 12.6368 50.9241 13.0113C50.9142 13.3851 50.9792 13.757 51.1153 14.1052C51.2514 14.4534 51.4558 14.7707 51.7164 15.0384H51.7243ZM67.1168 16.3506C66.2229 17.2087 65.0325 17.6878 63.7943 17.6878C62.556 17.6878 61.3657 17.2087 60.4718 16.3506C60.0269 15.9185 59.6765 15.3986 59.4428 14.8237C59.2092 14.2489 59.0974 13.6317 59.1146 13.0113C59.0979 12.3909 59.2099 11.7739 59.4435 11.1991C59.6771 10.6243 60.0273 10.1043 60.4718 9.67199C61.3657 8.81385 62.556 8.33475 63.7943 8.33475C65.0325 8.33475 66.2229 8.81385 67.1168 9.67199C67.5613 10.1043 67.9114 10.6243 68.1451 11.1991C68.3787 11.7739 68.4907 12.3909 68.474 13.0113C68.4912 13.6317 68.3794 14.2489 68.1457 14.8237C67.9121 15.3986 67.5617 15.9185 67.1168 16.3506ZM61.9389 15.0384C62.1766 15.2927 62.464 15.4954 62.7831 15.634C63.1023 15.7726 63.4464 15.8441 63.7943 15.8441C64.1421 15.8441 64.4863 15.7726 64.8054 15.634C65.1246 15.4954 65.4119 15.2927 65.6497 15.0384C65.9089 14.7701 66.1119 14.4525 66.2467 14.1043C66.3814 13.7562 66.4452 13.3845 66.4342 13.0113C66.4458 12.6368 66.3823 12.2638 66.2476 11.9143C66.1128 11.5648 65.9095 11.2458 65.6497 10.9763C65.4088 10.7246 65.1195 10.5243 64.7993 10.3875C64.4791 10.2507 64.1346 10.1801 63.7864 10.1801C63.4383 10.1801 63.0938 10.2507 62.7736 10.3875C62.4534 10.5243 62.1641 10.7246 61.9232 10.9763C61.6633 11.2458 61.46 11.5648 61.3253 11.9143C61.1905 12.2638 61.1271 12.6368 61.1386 13.0113C61.1287 13.3851 61.1937 13.757 61.3298 14.1052C61.4659 14.4534 61.6704 14.7707 61.931 15.0384H61.9389ZM73.8324 21.882C72.892 21.9119 71.9699 21.618 71.2199 21.0491C70.5539 20.5478 70.0295 19.8817 69.6979 19.1163L71.4866 18.3698C71.6813 18.8273 71.9858 19.2295 72.3731 19.5406C72.7877 19.8753 73.3079 20.0508 73.8402 20.0356C74.1777 20.0561 74.5157 20.0036 74.8312 19.8816C75.1466 19.7596 75.4321 19.5709 75.6681 19.3284C76.1408 18.7574 76.3742 18.0252 76.3193 17.2856V16.6098H76.2487C75.9497 16.9655 75.5722 17.2465 75.146 17.4306C74.7197 17.6147 74.2566 17.6969 73.7931 17.6706C73.2041 17.6723 72.6211 17.5518 72.081 17.3165C71.5408 17.0811 71.0553 16.7362 70.655 16.3034C70.2207 15.8741 69.8778 15.361 69.6472 14.7951C69.4166 14.2292 69.3031 13.6224 69.3135 13.0113C69.3026 12.3966 69.4159 11.7861 69.6464 11.2163C69.8769 10.6466 70.22 10.1293 70.655 9.69556C71.0543 9.26098 71.5395 8.91432 72.0797 8.6776C72.6199 8.44089 73.2034 8.3193 73.7931 8.32056C74.2922 8.31969 74.7852 8.42971 75.2367 8.64271C75.6272 8.81352 75.9754 9.06836 76.2565 9.38913H76.3272V8.64271H78.2728V17.0106C78.324 17.6725 78.2398 18.338 78.0253 18.9662C77.8108 19.5944 77.4706 20.1722 77.0254 20.6641C76.6014 21.0704 76.1003 21.3875 75.5519 21.5967C75.0035 21.8058 74.4188 21.9029 73.8324 21.882ZM73.9736 15.8477C74.3086 15.8551 74.6411 15.7885 74.9475 15.6527C75.2539 15.5169 75.5268 15.3152 75.7466 15.062C76.2307 14.5064 76.4859 13.7875 76.4605 13.0506C76.4896 12.3012 76.2345 11.5686 75.7466 10.9998C75.5271 10.7462 75.2543 10.5442 74.9478 10.4084C74.6413 10.2725 74.3086 10.2062 73.9736 10.2141C73.6294 10.2071 73.2877 10.2735 72.9712 10.4089C72.6546 10.5444 72.3705 10.7459 72.1378 10.9998C71.6188 11.5482 71.3369 12.2795 71.3532 13.0348C71.3453 13.4054 71.4105 13.7738 71.5451 14.119C71.6797 14.4642 71.8811 14.7793 72.1378 15.0463C72.3694 15.3027 72.6529 15.5068 72.9695 15.645C73.286 15.7832 73.6283 15.8523 73.9736 15.8477ZM81.7326 3.66914V17.4034H79.6849V3.66914H81.7326ZM87.3498 17.6863C86.7366 17.7021 86.1267 17.5909 85.5584 17.3597C84.99 17.1285 84.4755 16.7823 84.0469 16.3427C83.6121 15.9064 83.2703 15.386 83.0424 14.8134C82.8145 14.2407 82.7052 13.6276 82.7211 13.0113C82.6979 12.3935 82.7992 11.7773 83.0189 11.1996C83.2386 10.6218 83.5722 10.0943 83.9999 9.64842C84.4029 9.22293 84.8902 8.88643 85.4306 8.66048C85.971 8.43452 86.5525 8.3241 87.138 8.33628C87.6764 8.33058 88.2103 8.43485 88.707 8.64271C89.1545 8.8236 89.5623 9.09053 89.9074 9.42842C90.2037 9.71486 90.4668 10.0338 90.6919 10.3791C90.874 10.6707 91.0289 10.9784 91.1548 11.2984L91.3666 11.8327L85.0904 14.4177C85.2802 14.8545 85.5977 15.2234 86.001 15.4759C86.4044 15.7284 86.8746 15.8525 87.3498 15.832C87.8122 15.8333 88.2669 15.7145 88.6698 15.4873C89.0727 15.2601 89.4099 14.9322 89.6485 14.5356L91.2175 15.5963C90.8171 16.17 90.3047 16.6565 89.7112 17.0263C89.0055 17.4728 88.1845 17.7023 87.3498 17.6863ZM84.7295 12.8698L88.9032 11.1334C88.7746 10.8272 88.5446 10.5748 88.252 10.4184C87.9244 10.2331 87.5535 10.1382 87.1772 10.1434C86.5387 10.16 85.9326 10.4282 85.4905 10.8898C85.2259 11.1434 85.0205 11.4524 84.8889 11.7946C84.7574 12.1369 84.7029 12.5041 84.7295 12.8698Z" fill="white"/>
<path d="M102.091 17.6865C101.22 17.7016 100.355 17.5402 99.548 17.2122C98.741 16.8842 98.0085 16.3962 97.3945 15.7776C96.7805 15.159 96.2976 14.4225 95.9749 13.6123C95.6521 12.8021 95.4962 11.935 95.5164 11.063C95.4962 10.1909 95.6521 9.3238 95.9749 8.51362C96.2976 7.70345 96.7805 6.96695 97.3945 6.34833C98.0085 5.72972 98.741 5.24174 99.548 4.9137C100.355 4.58567 101.22 4.42433 102.091 4.43939C102.972 4.41179 103.848 4.58401 104.654 4.9432C105.46 5.30239 106.174 5.83925 106.743 6.51367L105.613 7.61367C105.195 7.08716 104.659 6.66687 104.048 6.38699C103.438 6.10711 102.77 5.97553 102.099 6.00296C101.453 5.98838 100.81 6.10476 100.21 6.3451C99.6104 6.58544 99.0652 6.94479 98.6074 7.40153C98.1315 7.88083 97.7597 8.45351 97.5153 9.0836C97.271 9.7137 97.1593 10.3876 97.1874 11.063C97.1593 11.7383 97.271 12.4122 97.5153 13.0423C97.7597 13.6724 98.1315 14.2451 98.6074 14.7244C99.0652 15.1811 99.6104 15.5405 100.21 15.7808C100.81 16.0212 101.453 16.1375 102.099 16.123C102.848 16.1314 103.59 15.9704 104.269 15.6521C104.949 15.3338 105.547 14.8663 106.021 14.2844L107.151 15.4158C106.559 16.1242 105.817 16.6907 104.978 17.0737C104.073 17.4919 103.087 17.7013 102.091 17.6865Z" fill="white"/>
<path d="M110.187 17.4036H108.563V4.71436H110.187V17.4036Z" fill="white"/>
<path d="M112.839 9.7662C113.69 8.91982 114.84 8.44482 116.04 8.44482C117.239 8.44482 118.39 8.91982 119.241 9.7662C119.657 10.2062 119.982 10.7243 120.197 11.2907C120.413 11.857 120.514 12.4604 120.496 13.0662C120.514 13.672 120.413 14.2754 120.197 14.8417C119.982 15.4081 119.657 15.9262 119.241 16.3662C118.39 17.2126 117.239 17.6876 116.04 17.6876C114.84 17.6876 113.69 17.2126 112.839 16.3662C112.423 15.9262 112.098 15.4081 111.882 14.8417C111.667 14.2754 111.565 13.672 111.584 13.0662C111.565 12.4604 111.667 11.857 111.882 11.2907C112.098 10.7243 112.423 10.2062 112.839 9.7662ZM114.047 15.3448C114.303 15.6156 114.611 15.8313 114.953 15.9787C115.295 16.1262 115.664 16.2022 116.036 16.2022C116.408 16.2022 116.777 16.1262 117.118 15.9787C117.46 15.8313 117.769 15.6156 118.025 15.3448C118.308 15.0397 118.529 14.6812 118.673 14.29C118.817 13.8988 118.882 13.4828 118.864 13.0662C118.882 12.6496 118.817 12.2336 118.673 11.8424C118.529 11.4512 118.308 11.0927 118.025 10.7876C117.769 10.5168 117.46 10.3011 117.118 10.1537C116.777 10.0062 116.408 9.9302 116.036 9.9302C115.664 9.9302 115.295 10.0062 114.953 10.1537C114.611 10.3011 114.303 10.5168 114.047 10.7876C113.763 11.0927 113.543 11.4512 113.399 11.8424C113.255 12.2336 113.19 12.6496 113.208 13.0662C113.192 13.482 113.258 13.8969 113.404 14.2867C113.549 14.6765 113.771 15.0334 114.055 15.3369L114.047 15.3448Z" fill="white"/>
<path d="M129.495 17.4038H127.926V16.2016H127.879C127.599 16.6582 127.204 17.0324 126.733 17.2859C126.245 17.5695 125.69 17.7186 125.125 17.7181C124.666 17.7495 124.207 17.6768 123.78 17.5053C123.354 17.3339 122.971 17.0682 122.661 16.7281C122.067 15.9752 121.769 15.0306 121.822 14.0723V8.72949H123.446V13.7738C123.446 15.3923 124.16 16.2016 125.588 16.2016C125.905 16.2115 126.22 16.1454 126.507 16.0087C126.793 15.8721 127.043 15.6688 127.235 15.4159C127.656 14.8817 127.881 14.2185 127.871 13.5381V8.72949H129.495V17.4038Z" fill="white"/>
<path d="M135.01 17.6865C134.459 17.6883 133.914 17.5706 133.413 17.3413C132.912 17.1121 132.466 16.7769 132.107 16.3586C131.294 15.4589 130.858 14.2797 130.891 13.0665C130.858 11.8533 131.294 10.6741 132.107 9.77435C132.466 9.35614 132.912 9.02088 133.413 8.79165C133.914 8.56242 134.459 8.44467 135.01 8.4465C135.627 8.43674 136.237 8.58265 136.783 8.87078C137.263 9.11264 137.669 9.47892 137.96 9.9315H138.03L137.96 8.72936V4.71436H139.583V17.4036H138.014V16.2015H137.944C137.653 16.6541 137.247 17.0204 136.767 17.2622C136.226 17.5478 135.622 17.6936 135.01 17.6865ZM135.276 16.2015C135.643 16.2069 136.008 16.134 136.344 15.9877C136.681 15.8414 136.983 15.625 137.23 15.3529C137.782 14.7238 138.063 13.9023 138.014 13.0665C138.063 12.2307 137.782 11.4092 137.23 10.7801C136.981 10.5065 136.679 10.288 136.341 10.1384C136.003 9.98889 135.638 9.91164 135.269 9.91164C134.899 9.91164 134.534 9.98889 134.196 10.1384C133.859 10.288 133.556 10.5065 133.307 10.7801C133.033 11.0895 132.823 11.45 132.688 11.841C132.554 12.232 132.497 12.6458 132.523 13.0586C132.497 13.4715 132.554 13.8852 132.688 14.2762C132.823 14.6672 133.033 15.0278 133.307 15.3372C133.555 15.6141 133.858 15.8346 134.198 15.9838C134.538 16.1329 134.906 16.2071 135.276 16.2015Z" fill="white"/>
</svg>
